<?xml version="1.0" encoding="UTF-8" standalone="no"?>
<svg
   xmlns:dc="http://purl.org/dc/elements/1.1/"
   xmlns:cc="http://creativecommons.org/ns#"
   xmlns:rdf="http://www.w3.org/1999/02/22-rdf-syntax-ns#"
   xmlns:svg="http://www.w3.org/2000/svg"
   xmlns="http://www.w3.org/2000/svg"
   viewBox="0 0 333.73334 117.42667"
   height="117.42667"
   width="333.73334"
   xml:space="preserve"
   id="svg2"
   version="1.1"><metadata
     id="metadata8"><rdf:RDF><cc:Work
         rdf:about=""><dc:format>image/svg+xml</dc:format><dc:type
           rdf:resource="http://purl.org/dc/dcmitype/StillImage" /></cc:Work></rdf:RDF></metadata><defs
     id="defs6"><clipPath
       id="clipPath20"
       clipPathUnits="userSpaceOnUse"><path
         id="path18"
         d="M 0,0 H 2503 V 880.746 H 0 Z" /></clipPath></defs><g
     transform="matrix(1.3333333,0,0,-1.3333333,0,117.42667)"
     id="g10"><g
       transform="scale(0.1)"
       id="g12"><g
         id="g14"><g
           clip-path="url(#clipPath20)"
           id="g16"><path
             id="path22"
             style="fill:#3d3a3b;fill-opacity:1;fill-rule:nonzero;stroke:none"
             d="m 472.504,581.254 h 138.41 V 728.23 c 0,41.012 -20.496,61.52 -61.512,61.52 h -15.379 c -41.011,0 -61.519,-20.508 -61.519,-61.52 z m -0.313,-93.793 0.313,-161.66 c 0,-41.012 20.508,-61.52 61.519,-61.52 h 17.942 c 41.012,0 61.515,20.508 61.515,61.52 v 79.461 h 94.84 v -75.617 c 0,-103.813 -52.543,-156.36 -156.355,-156.36 h -20.508 c -103.812,0 -156.355,52.547 -156.355,144.203 V 712.23 c 0,115.965 52.543,168.516 156.355,168.516 h 20.508 c 103.812,0 156.355,-52.551 156.355,-156.363 L 708.008,487.461 H 472.191" /><path
             id="path24"
             style="fill:#3d3a3b;fill-opacity:1;fill-rule:nonzero;stroke:none"
             d="m 869.008,301.445 c 26.914,-23.062 57.676,-35.879 89.715,-35.879 35.886,0 56.397,16.657 56.397,56.387 v 410.121 c 0,39.735 -20.511,56.391 -56.397,56.391 -32.039,0 -62.801,-12.817 -89.715,-35.887 z m -97.406,571.61 h 97.406 v -44.86 c 23.07,24.356 62.801,52.551 119.195,52.551 83.307,0 124.317,-55.109 124.317,-137.133 V 310.422 c 0,-82.027 -41.01,-137.137 -124.317,-137.137 -56.394,0 -96.125,26.914 -119.195,49.985 V 0 h -97.406 v 873.055" /><path
             id="path26"
             style="fill:#3d3a3b;fill-opacity:1;fill-rule:nonzero;stroke:none"
             d="m 1404.57,297.605 v 228.282 l -88.43,-33.477 c -35.89,-14.101 -47.42,-32.039 -47.42,-71.769 V 315.547 c 0,-33.324 16.66,-49.981 47.42,-49.981 29.47,0 56.39,10.25 88.43,32.039 z m -233.26,124.321 c 0,85.863 28.2,120.469 102.53,146.097 l 130.73,44.864 V 728.23 c 0,41.012 -20.51,62.801 -61.52,62.801 h -15.87 c -41.01,0 -61.52,-21.789 -61.52,-62.801 v -98.027 h -94.84 v 94.18 c 0,103.812 52.55,156.363 156.36,156.363 h 18.43 c 103.81,0 156.36,-52.551 156.36,-156.363 V 180.977 h -97.4 v 43.578 c -26.91,-25.637 -62.8,-51.27 -119.19,-51.27 -78.18,0 -114.07,44.86 -114.07,121.754 v 126.887" /><path
             id="path28"
             style="fill:#3d3a3b;fill-opacity:1;fill-rule:nonzero;stroke:none"
             d="m 1895.92,180.977 h -97.41 V 738.48 c 0,34.606 -16.65,49.985 -46.13,49.985 -26.92,0 -55.11,-10.25 -89.72,-34.602 V 180.977 h -97.4 v 692.078 h 97.4 v -44.86 c 28.2,26.914 65.37,52.551 119.2,52.551 49.98,0 83.3,-20.508 101.24,-56.394 34.61,29.48 75.62,56.394 132.01,56.394 75.62,0 114.07,-46.144 114.07,-121.758 V 180.977 h -97.41 V 738.48 c 0,34.606 -16.66,49.985 -46.14,49.985 -26.91,0 -55.11,-10.25 -89.71,-34.602 V 180.977" /><path
             id="path30"
             style="fill:#29b9d2;fill-opacity:1;fill-rule:nonzero;stroke:none"
             d="M 250.262,809.312 V 682.047 L 86.3398,525.848 250.262,372.438 V 242.391 L 0,477.641 v 93.629 l 250.262,238.042" /><path
             id="path32"
             style="fill:#29b9d2;fill-opacity:1;fill-rule:nonzero;stroke:none"
             d="m 2503.02,571.27 v -93.629 l -250.26,-235.25 v 130.047 l 163.92,153.41 -163.92,156.199 V 809.312 L 2503.02,571.27" /></g></g></g></g></svg>