<?xml version="1.0" encoding="UTF-8" standalone="no"?>
<!DOCTYPE svg PUBLIC "-//W3C//DTD SVG 1.1//EN" "http://www.w3.org/Graphics/SVG/1.1/DTD/svg11.dtd">
<!-- Generated by Microsoft Visio, SVG Export general-structure.svg General structure -->
<svg xmlns="http://www.w3.org/2000/svg" xmlns:xlink="http://www.w3.org/1999/xlink" xmlns:ev="http://www.w3.org/2001/xml-events"
		width="11.6929in" height="8.26772in" viewBox="0 0 841.889 595.276" xml:space="preserve" color-interpolation-filters="sRGB"
		class="st37">
	<title>General structure of nfstrace</title>

	<style type="text/css">
	<![CDATA[
		.st1 {fill:#ffffff;stroke:#000000;stroke-width:0.25}
		.st2 {fill:#000000;font-family:Calibri;font-size:0.833336em}
		.st3 {font-size:1em}
		.st4 {font-size:0.899997em}
		.st5 {marker-start:url(#mrkr7-35);stroke:#000000;stroke-linecap:round;stroke-linejoin:round;stroke-width:0.499999}
		.st6 {fill:#000000;fill-opacity:1;stroke:#000000;stroke-opacity:1;stroke-width:0.16556271699054}
		.st7 {fill:#ffffff;stroke:none;stroke-linecap:butt;stroke-width:7.2}
		.st8 {fill:#000000;font-family:Calibri;font-size:0.666664em}
		.st9 {marker-end:url(#mrkr7-43);stroke:#000000;stroke-linecap:round;stroke-linejoin:round;stroke-width:0.499999}
		.st10 {marker-end:url(#mrkr4-65);stroke:#000000;stroke-linecap:round;stroke-linejoin:round;stroke-width:0.999999}
		.st11 {fill:#000000;fill-opacity:1;stroke:#000000;stroke-opacity:1;stroke-width:0.28409061919554}
		.st12 {fill:#ffffff;stroke:none;stroke-width:0.25}
		.st13 {fill:none}
		.st14 {stroke:#000000;stroke-linecap:round;stroke-linejoin:round;stroke-width:0.999999}
		.st15 {marker-end:url(#mrkr22-112);stroke:#000000;stroke-linecap:round;stroke-linejoin:round;stroke-width:0.499999}
		.st16 {fill:none;stroke:none;stroke-width:0.25}
		.st17 {fill:#000000;font-family:Calibri;font-size:1.00001em}
		.st18 {marker-end:url(#mrkr4-129);stroke:#000000;stroke-linecap:round;stroke-linejoin:round;stroke-width:0.499999}
		.st19 {marker-end:url(#mrkr16-135);stroke:#000000;stroke-linecap:round;stroke-linejoin:round;stroke-width:0.499999}
		.st20 {fill:none;stroke:#000000;stroke-dasharray:0.01,1.25;stroke-width:0.25}
		.st21 {fill:#000000;font-family:Calibri;font-size:0.833336em;font-weight:bold}
		.st22 {fill:#000000;font-family:Calibri;font-size:0.666664em;font-weight:bold}
		.st23 {font-size:1em;font-weight:normal}
		.st24 {fill:none;stroke:#000000;stroke-width:0.25}
		.st25 {fill:none;stroke:none;stroke-width:5.99999}
		.st26 {stroke:#fec000;stroke-opacity:0.5;stroke-width:5.99999}
		.st27 {stroke:#f59d56;stroke-opacity:0.5;stroke-width:5.99999}
		.st28 {stroke:#70ad47;stroke-opacity:0.5;stroke-width:5.99999}
		.st29 {stroke:#9cc3e5;stroke-opacity:0.5;stroke-width:5.99999}
		.st30 {fill:none;stroke:none;stroke-width:0.999999}
		.st31 {stroke:#c7c8c8;stroke-width:0.25}
		.st32 {fill:none;stroke:#c7c8c8;stroke-width:0.25}
		.st33 {fill:none;stroke:#c7c8c8;stroke-linecap:round;stroke-linejoin:round;stroke-width:0.25}
		.st34 {stroke:#c8c8c8;stroke-width:0.25}
		.st35 {fill:none;stroke:#c8c8c8;stroke-width:0.25}
		.st36 {fill:none;stroke:#c8c8c8;stroke-linecap:round;stroke-linejoin:round;stroke-width:0.25}
		.st37 {fill:none;fill-rule:evenodd;font-size:12px;overflow:visible;stroke-linecap:square;stroke-miterlimit:3}
	]]>
	</style>

	<defs id="Markers">
		<g id="lend7">
			<path
					d="M 1.84309 -0.959455 C 1.43792 -0.3808 0.784502 -0.0260248 0.0785258 -0.00137083 L 0.0785228 0.00137063 C 0.784499 0.0260235 1.43791 0.380798 1.84309 0.959452 "
					style="stroke-linecap:round;stroke-linejoin:round;fill:none"/>
		</g>
		<marker id="mrkr7-35" class="st6" orient="auto" markerUnits="strokeWidth" overflow="visible">
			<use xlink:href="#lend7" transform="scale(6.0400071838466) "/>
		</marker>
		<marker id="mrkr7-43" class="st6" orient="auto" markerUnits="strokeWidth" overflow="visible">
			<use xlink:href="#lend7" transform="scale(-6.0400071838466,-6.0400071838466) "/>
		</marker>
		<g id="lend4">
			<path d="M 2 1 L 0 0 L 2 -1 L 2 1 " style="stroke:none"/>
		</g>
		<marker id="mrkr4-65" class="st11" refX="-0" orient="auto" markerUnits="strokeWidth" overflow="visible">
			<use xlink:href="#lend4" transform="scale(-3.5200035919233,-3.5200035919233) "/>
		</marker>
		<g id="lend22">
			<path d="M 0 0 L 2.25 -1.125 L 4.5 0 L 2.25 1.125 L 0 0 " style="stroke-linecap:round;stroke-linejoin:round;fill:none"/>
		</g>
		<marker id="mrkr22-112" class="st6" refX="-0" orient="auto" markerUnits="strokeWidth" overflow="visible">
			<use xlink:href="#lend22" transform="scale(-6.0400071838466,-6.0400071838466) "/>
		</marker>
		<marker id="mrkr4-129" class="st6" refX="-0" orient="auto" markerUnits="strokeWidth" overflow="visible">
			<use xlink:href="#lend4" transform="scale(-6.0400071838466,-6.0400071838466) "/>
		</marker>
		<g id="lend16">
			<path d="M 0 0 L 2 -1 L 2 1 L 0 0 " style="stroke-linecap:round;stroke-linejoin:round;fill:none"/>
		</g>
		<marker id="mrkr16-135" class="st6" refX="-0" orient="auto" markerUnits="strokeWidth" overflow="visible">
			<use xlink:href="#lend16" transform="scale(-6.0400071838466,-6.0400071838466) "/>
		</marker>
	</defs>
	<g>
		<title>General structure</title>
		<g id="shape32-1" transform="translate(442.204,-53.7171)">
			<title>Sheet.32</title>
			<path d="M-0 589.61 A5.66941 5.66941 -180 0 0 5.67 595.28 L240.94 595.28 A5.66941 5.66941 -180 0 0 246.61 589.61 L246.61
						 538.3 A5.66941 5.66941 -180 0 0 240.94 532.63 L5.67 532.63 A5.66941 5.66941 -180 0 0 -0 538.3 L0 589.61
						 Z" class="st1"/>
		</g>
		<g id="shape29-3" transform="translate(613.7,-62.5133)">
			<title>Rectangle.153</title>
			<desc>Operation Breakdown Analyzer</desc>
			<rect x="0" y="550.222" width="66.3269" height="45.0535" class="st1"/>
			<text x="12.51" y="563.22" class="st2">Operation <tspan x="10.08" dy="1.2em" class="st3">Breakdown </tspan><tspan
						x="15.63" dy="1.2em" class="st3">Analyzer</tspan></text>		</g>
		<g id="shape1-8" transform="translate(440.788,-124.725)">
			<title>Rectangle.5</title>
			<desc>AnalysisManager</desc>
			<rect x="0" y="321.546" width="246.614" height="273.73" class="st1"/>
			<text x="4" y="334.55" class="st2">AnalysisManager</text>		</g>
		<g id="shape2-11" transform="translate(99.2125,-124.725)">
			<title>Rectangle.4</title>
			<desc>FiltrationManager</desc>
			<rect x="0" y="321.546" width="246.614" height="273.73" class="st1"/>
			<text x="4" y="334.55" class="st2">FiltrationManager</text>		</g>
		<g id="shape3-14" transform="translate(99.2126,-420.019)">
			<title>Rectangle.2</title>
			<desc>Controller : main() thread</desc>
			<rect x="0" y="521.051" width="586.771" height="74.2251" class="st1"/>
			<text x="4" y="534.05" class="st2">Controller : main() thread</text>		</g>
		<g id="shape4-17" transform="translate(361.137,-433.414)">
			<title>Rectangle.7</title>
			<desc>RunningStatus</desc>
			<rect x="0" y="547.844" width="68.5909" height="47.4322" class="st1"/>
			<text x="4.95" y="574.56" class="st2">RunningStatus</text>		</g>
		<g id="shape5-20" transform="translate(487.558,-204.094)">
			<title>Rectangle.42</title>
			<desc>Analysers storage for Analyzers manager of plugin instances</desc>
			<rect x="0" y="496.063" width="102.047" height="99.2125" class="st1"/>
			<text x="4" y="509.06" class="st2">Analysers<tspan x="4" dy="2.4em" class="st3">s</tspan><tspan class="st4">torage for Analyzers </tspan><tspan
						x="4" dy="1.233em" class="st4">manager of plugin </tspan><tspan x="4" dy="1.2em" class="st4">instances</tspan></text>		</g>
		<g id="shape6-27" transform="translate(471.117,-330.155)">
			<title>Rectangle.72</title>
			<desc>NFSParserThread : std::thread</desc>
			<rect x="0" y="557.008" width="204.945" height="38.2676" class="st1"/>
			<text x="4" y="570.01" class="st2">NFSParserThread : std::thread</text>		</g>
		<g id="shape7-30" transform="translate(883.146,-196.142) rotate(52.9285)">
			<title>Sheet.7</title>
			<desc>Exception</desc>
			<path d="M0 595.28 L104.39 595.28" class="st5"/>
			<rect x="36.2592" y="590.472" width="31.8744" height="9.59985" class="st7"/>
			<text x="36.26" y="597.67" class="st8">Exception</text>		</g>
		<g id="shape8-38" transform="translate(-198.71,-0.661027) rotate(-64.3256)">
			<title>Sheet.8</title>
			<desc>Exception</desc>
			<path d="M0 595.28 L104.91 595.28" class="st9"/>
			<rect x="36.5169" y="590.472" width="31.8744" height="9.59985" class="st7"/>
			<text x="36.52" y="597.67" class="st8">Exception</text>		</g>
		<g id="shape9-46" transform="translate(106.778,-130.394)">
			<title>Rectangle.98</title>
			<desc>FiltrationImpl&#60;Reader, Writer&#62; : ProcessingThread</desc>
			<rect x="0" y="408.189" width="230.544" height="187.087" class="st1"/>
			<text x="4" y="421.19" class="st2">FiltrationImpl&#60;Reader, Writer&#62; : ProcessingThread</text>		</g>
		<g id="shape10-49" transform="translate(-128.261,391.181) rotate(-90)">
			<title>Rectangle.8</title>
			<desc>Queue</desc>
			<rect x="0" y="577.552" width="99.2125" height="17.724" class="st1"/>
			<text x="36.01" y="588.91" class="st2">Queue</text>		</g>
		<g id="shape11-52" transform="translate(114.803,-138.339)">
			<title>Rectangle.74</title>
			<desc>FiltrationProcessor&#60;Reader, Writer&#62; parsing a packet matching...</desc>
			<rect x="0" y="441.646" width="215.433" height="153.63" class="st1"/>
			<text x="4" y="454.65" class="st2">FiltrationProcessor&#60;Reader, Writer&#62;<tspan x="4" dy="2.4em" class="st3">parsing a packet</tspan><tspan
						x="4" dy="1.2em" class="st3">matching to session</tspan><tspan x="4" dy="1.2em" class="st3">reassembling TCP flows</tspan><tspan
						x="4" dy="1.2em" class="st3">detecting RPC</tspan>/NFS/CIFS headers <tspan x="4" dy="1.2em" class="st3">copying headers to Writer</tspan>::Collection of session</text>		</g>
		<g id="shape12-60" transform="translate(277.169,-100.879)">
			<title>Dynamic connector.83</title>
			<path d="M0 552.72 L0 588.24 L0 595.28" class="st10"/>
		</g>
		<g id="shape13-66" transform="translate(232.441,-88.122)">
			<title>Sheet.13</title>
			<desc>out.pcap | ::stdout</desc>
			<rect x="0" y="582.52" width="85.0393" height="12.7559" class="st12"/>
			<text x="4.12" y="591.9" class="st2">out.pcap | ::stdout</text>		</g>
		<g id="shape14-69" transform="translate(231.717,-143.443)">
			<title>Rectangle.18</title>
			<desc>Dumping</desc>
			<rect x="0" y="563.586" width="90.8975" height="31.6899" class="st1"/>
			<text x="27" y="581.93" class="st2">Dumping</text>		</g>
		<g id="shape15-72" transform="translate(322.614,-188.977)">
			<title>Dynamic connector.99</title>
			<path d="M0 595.28 L37.11 595.28 L0 595.28 Z" class="st13"/>
			<path d="M0 595.28 L37.11 595.28" class="st14"/>
		</g>
		<g id="shape16-75" transform="translate(458.148,-303.303)">
			<title>Dynamic connector.100</title>
			<path d="M0 595.28 L0 549.29 L5.93 549.29 L12.97 549.29" class="st10"/>
		</g>
		<g id="shape17-80" transform="translate(231.717,-174.096)">
			<title>Rectangle.75</title>
			<desc>Queuing</desc>
			<rect x="0" y="565.512" width="90.8975" height="29.7638" class="st1"/>
			<text x="28.21" y="582.89" class="st2">Queuing</text>		</g>
		<g id="shape18-83" transform="translate(428.562,-468.278) rotate(-0.112214)">
			<title>Sheet.18</title>
			<desc>Exception</desc>
			<path d="M0 595.28 L72.37 595.28" class="st5"/>
			<rect x="20.2466" y="590.472" width="31.8744" height="9.59985" class="st7"/>
			<text x="20.25" y="597.67" class="st8">Exception</text>		</g>
		<g id="shape19-90" transform="translate(613.7,-147.403)">
			<title>Rectangle.106</title>
			<desc>IAnalyzer</desc>
			<rect x="0" y="579.685" width="66.3269" height="15.5906" class="st1"/>
			<text x="14.37" y="591.18" class="st2">IAnalyzer</text>		</g>
		<g id="shape20-93" transform="translate(359.719,-184.018)">
			<title>Rectangle.114</title>
			<desc>FiltrationData</desc>
			<rect x="0" y="585.355" width="68.5909" height="9.92125" class="st1"/>
			<text x="6.26" y="593.32" class="st2">FiltrationData</text>		</g>
		<g id="shape21-96" transform="translate(428.31,-188.973)">
			<title>Dynamic connector.117</title>
			<path d="M0 595.28 L29.84 595.28 L29.84 587.2 L29.84 580.16" class="st10"/>
		</g>
		<g id="shape22-101" transform="translate(613.7,-212.598)">
			<title>Rectangle.118</title>
			<desc>PrintAnalyzer</desc>
			<rect x="0" y="579.685" width="66.3269" height="15.5906" class="st1"/>
			<text x="5.86" y="591.18" class="st2">PrintAnalyzer</text>		</g>
		<g id="shape23-104" transform="translate(107.247,-362.835)">
			<title>Rectangle.121</title>
			<desc>std::vector&#60;std::unique_ptr&#60;ProcessingThread&#62;&#62;</desc>
			<rect x="0" y="579.685" width="230.544" height="15.5906" class="st1"/>
			<text x="15.93" y="591.18" class="st2">std::vector&#60;std::unique_ptr&#60;ProcessingThread&#62;&#62;</text>		</g>
		<g id="shape24-107" transform="translate(222.523,-345.823)">
			<title>Dynamic connector.131</title>
			<path d="M0 595.28 L0 591.86 L0 578.27" class="st15"/>
		</g>
		<g id="shape25-113" transform="translate(680.027,-220.393)">
			<title>Dynamic connector.136</title>
			<path d="M0 595.28 L14.51 595.28 L21.55 595.28" class="st10"/>
		</g>
		<g id="shape26-118" transform="translate(502.095,-459.921)">
			<title>Rectangle.6</title>
			<desc>SignalHandler : std::thread</desc>
			<rect x="0" y="578.268" width="121.526" height="17.0079" class="st1"/>
			<text x="6.57" y="589.27" class="st2">SignalHandler : std::thread</text>		</g>
		<g id="shape27-121" transform="translate(434.834,-510.236)">
			<title>Sheet.27</title>
			<desc>SIGINT</desc>
			<rect x="0" y="584.043" width="41.3857" height="11.2326" class="st16"/>
			<text x="4.33" y="593.26" class="st17">SIGINT</text>		</g>
		<g id="shape28-124" transform="translate(735.85,-441.599) rotate(27.785)">
			<title>Sheet.28</title>
			<path d="M0 595.28 L65.41 595.28 L71.45 595.28" class="st18"/>
		</g>
		<g id="shape30-130" transform="translate(646.867,-107.562)">
			<title>Dynamic connector.154</title>
			<path d="M0 595.28 L0 561.48 L0 555.44" class="st19"/>
		</g>
		<g id="shape31-136" transform="translate(481.609,-147.403)">
			<title>Rectangle.155</title>
			<desc>PluginInstance</desc>
			<rect x="0" y="579.685" width="68.5909" height="15.5906" class="st1"/>
			<text x="4.67" y="591.18" class="st2">PluginInstance</text>		</g>
		<g id="shape33-139" transform="translate(447.874,-60.6614)">
			<title>Sheet.33</title>
			<desc>const char* usage(); IAnalyzer* create(const char* params); d...</desc>
			<path d="M0 595.28 L161.57 595.28 L161.57 556.72 L0 556.72 L0 595.28 Z" class="st20"/>
			<text x="92.25" y="564" class="st8">const char* usage();<tspan x="30.48" dy="1.2em" class="st3">IAnalyzer</tspan>* create(const char* params);<tspan
						x="91.91" dy="1.2em" class="st3">destroy</tspan>(IAnalyzer*); <tspan x="7.44" dy="1.2em" class="st3">const AnalyzerRequirements</tspan>* requirements();</text>		</g>
		<g id="shape34-145" transform="translate(449.827,-101.339)">
			<title>Sheet.34</title>
			<desc>libbreakdown.so</desc>
			<rect x="0" y="585.355" width="78.2991" height="9.92125" class="st16"/>
			<text x="4.37" y="593.32" class="st21">libbreakdown.so</text>		</g>
		<g id="shape35-148" transform="translate(495.782,-116.358)">
			<title>Dynamic connector.160</title>
			<path d="M0 595.28 L20.12 595.28 L20.12 577.83 L20.12 564.24" class="st15"/>
		</g>
		<g id="shape36-153" transform="translate(646.867,-162.994)">
			<title>Dynamic connector.161</title>
			<path d="M0 545.68 L0 589.24 L0 595.28" class="st19"/>
		</g>
		<g id="shape37-158" transform="translate(515.901,-162.988)">
			<title>Dynamic connector.162</title>
			<path d="M0 595.28 L0 567.76 L0 554.17" class="st15"/>
		</g>
		<g id="shape38-163" transform="translate(140.315,-70.4013)">
			<title>Sheet.38</title>
			<desc>Optional CHILD Process with external tool for compression, li...</desc>
			<path d="M0 595.28 L93.54 595.28 L93.54 552.29 L0 552.29 L0 595.28 Z" class="st20"/>
			<text x="7.99" y="566.58" class="st22">Optional CHILD Process<tspan x="12.26" dy="1.2em" class="st23">with external tool for </tspan><tspan
						x="8.69" dy="1.2em" class="st23">compression</tspan><tspan class="st23">, </tspan><tspan class="st23">like </tspan>bzip2</text>		</g>
		<g id="shape39-170" transform="translate(608.03,-340.157)">
			<title>Rectangle.169</title>
			<desc>RPCSessions</desc>
			<rect x="0" y="575.433" width="59.5275" height="19.8425" class="st1"/>
			<text x="4.74" y="588.43" class="st2">RPCSessions</text>		</g>
		<g id="shape40-173" transform="translate(701.785,-62.5133)">
			<title>Rectangle.186</title>
			<desc>Plugin output (gnuplot)</desc>
			<rect x="0" y="550.222" width="49.6062" height="45.0535" class="st1"/>
			<text x="12.32" y="563.22" class="st2">Plugin <tspan x="10.94" dy="1.2em" class="st3">output</tspan><tspan x="6.08"
						dy="1.2em" class="st3">(</tspan>gnuplot)</text>		</g>
		<g id="shape41-178" transform="translate(680.027,-85.039)">
			<title>Dynamic connector.187</title>
			<path d="M0 595.28 L14.72 595.28 L21.76 595.28" class="st10"/>
		</g>
		<g id="group42-183" transform="translate(253.701,-472.492)">
			<title>Sheet.42</title>
			<g id="shape43-184" transform="translate(-7.99361E-015,-36.7016)">
				<title>Sheet.43</title>
				<desc>argc</desc>
				<rect x="0" y="584.544" width="28.3465" height="10.7323" class="st16"/>
				<text x="5.57" y="592.91" class="st2">argc</text>			</g>
			<g id="shape44-187" transform="translate(609.445,560.576) rotate(90)">
				<title>Sheet.44</title>
				<path d="M0 595.28 L28.66 595.28 L34.7 595.28" class="st18"/>
			</g>
		</g>
		<g id="group45-192" transform="translate(274.362,-472.793)">
			<title>Sheet.45</title>
			<g id="shape46-193" transform="translate(-5.9952E-015,-36.4008)">
				<title>Sheet.46</title>
				<desc>argv[]</desc>
				<rect x="0" y="584.544" width="34.6142" height="10.7323" class="st16"/>
				<text x="5.49" y="592.91" class="st2">argv[]</text>			</g>
			<g id="shape47-196" transform="translate(612.831,560.576) rotate(90)">
				<title>Sheet.47</title>
				<path d="M0 595.28 L28.66 595.28 L34.7 595.28" class="st18"/>
			</g>
		</g>
		<g id="shape48-201" transform="translate(226.772,-432.657)">
			<title>Rectangle.194</title>
			<desc>Parameters</desc>
			<rect x="0" y="545.234" width="109.134" height="50.0417" class="st24"/>
			<text x="31.11" y="588.28" class="st2">Parameters</text>		</g>
		<g id="shape49-204" transform="translate(235.087,-452.65)">
			<title>Rectangle.43</title>
			<desc>CmdlineParser&#60;CLI&#62;</desc>
			<rect x="0" y="575.433" width="90.8975" height="19.8425" class="st1"/>
			<text x="4.84" y="588.35" class="st2">CmdlineParser&#60;CLI&#62;</text>		</g>
		<g id="shape50-207" transform="translate(476.219,-510.236)">
			<title>Sheet.50</title>
			<desc>SIGCHLD</desc>
			<rect x="0" y="584.043" width="53.8582" height="11.2326" class="st16"/>
			<text x="5.72" y="593.26" class="st17">SIGCHLD</text>		</g>
		<g id="shape51-210" transform="translate(14.1732,-189.921)">
			<title>Sheet.51</title>
			<desc>Offline Analysis</desc>
			<rect x="0" y="575.276" width="85.0393" height="20" class="st25"/>
			<text x="4.98" y="588.88" class="st17">Offline Analysis</text>		</g>
		<g id="shape52-213" transform="translate(14.1732,-158.583)">
			<title>Sheet.52</title>
			<desc>Online Analysis</desc>
			<rect x="0" y="575.276" width="85.0393" height="20" class="st25"/>
			<text x="5.49" y="588.88" class="st17">Online Analysis</text>		</g>
		<g id="shape53-216" transform="translate(15.5433,-140.236)">
			<title>Sheet.53</title>
			<desc>Online Dumping</desc>
			<rect x="0" y="575.276" width="87.9684" height="20" class="st25"/>
			<text x="4.47" y="588.88" class="st17">Online Dumping</text>		</g>
		<g id="shape54-219" transform="translate(926.702,-340.288) rotate(44.3969)">
			<title>Sheet.54</title>
			<path d="M0 595.28 L41.57 595.28 L47.61 595.28" class="st18"/>
		</g>
		<g id="shape55-224" transform="translate(638.613,-459.921)">
			<title>Rectangle.180</title>
			<desc>Log</desc>
			<rect x="0" y="578.268" width="34.6142" height="17.0079" class="st1"/>
			<text x="10.21" y="589.77" class="st2">Log</text>		</g>
		<g id="shape56-227" transform="translate(673.227,-468.425)">
			<title>Dynamic connector.184</title>
			<path d="M0 595.28 L21.31 595.28 L28.35 595.28" class="st10"/>
		</g>
		<g id="shape57-232" transform="translate(638.613,-435.472)">
			<title>Rectangle.231</title>
			<desc>Out</desc>
			<rect x="0" y="578.268" width="34.6142" height="17.0079" class="st1"/>
			<text x="9.69" y="589.77" class="st2">Out</text>		</g>
		<g id="shape58-235" transform="translate(673.227,-443.976)">
			<title>Dynamic connector.233</title>
			<path d="M0 595.28 L21.31 595.28 L28.35 595.28" class="st10"/>
		</g>
		<g id="shape59-240" transform="translate(222.515,-398.451)">
			<title>Dynamic connector.239</title>
			<path d="M0 595.28 L0.06 587.3 L0.16 573.71" class="st15"/>
		</g>
		<g id="shape60-245" transform="translate(557.005,-398.451)">
			<title>Dynamic connector.240</title>
			<path d="M8.51 595.28 L0 595.28 L0 587.3 L0 573.71" class="st15"/>
		</g>
		<g id="shape61-250" transform="translate(107.247,-330.236)">
			<title>Rectangle.242</title>
			<desc>ProcessingThread : std::thread</desc>
			<rect x="0" y="579.685" width="230.544" height="15.5906" class="st1"/>
			<text x="53.26" y="591.18" class="st2">ProcessingThread : std::thread</text>		</g>
		<g id="shape62-253" transform="translate(219.685,-317.478)">
			<title>Dynamic connector.245</title>
			<path d="M0 595.28 L0 589.96 L0 588.56 L0 582.52" class="st19"/>
		</g>
		<g id="shape63-258" transform="translate(18,-182.835)">
			<title>Sheet.63</title>
			<desc>in.pcap | ::stdin</desc>
			<rect x="0" y="582.52" width="72.5668" height="12.7559" class="st16"/>
			<text x="4.21" y="591.4" class="st2">in.pcap | ::stdin</text>		</g>
		<g id="shape64-261" transform="translate(49.6062,-152.362)">
			<title>Sheet.64</title>
			<desc>eth0</desc>
			<rect x="0" y="582.52" width="26.6614" height="12.7559" class="st16"/>
			<text x="4.01" y="591.4" class="st2">eth0</text>		</g>
		<g id="shape65-264" transform="translate(137.96,-174.331)">
			<title>Rectangle.11</title>
			<desc>FileReader</desc>
			<rect x="0" y="564.245" width="70.3861" height="31.0307" class="st1"/>
			<text x="13.66" y="582.76" class="st2">FileReader</text>		</g>
		<g id="shape66-267" transform="translate(137.96,-142.716)">
			<title>Rectangle.10</title>
			<desc>CaptureReader</desc>
			<rect x="0" y="563.586" width="70.3861" height="31.6899" class="st1"/>
			<text x="4.52" y="582.43" class="st2">CaptureReader</text>		</g>
		<g id="shape67-270" transform="translate(715.512,389.914) rotate(90)">
			<title>Rectangle.21</title>
			<desc>libpcap</desc>
			<rect x="0" y="577.552" width="62.6456" height="17.724" class="st1"/>
			<text x="16.64" y="589.41" class="st2">libpcap</text>		</g>
		<g id="shape68-273" transform="translate(76.2676,-158.563)">
			<title>Dynamic connector.16</title>
			<path d="M0 595.1 L48.93 595.1 L48.93 595.28 L54.65 595.28 L61.69 595.28" class="st10"/>
		</g>
		<g id="shape69-278" transform="translate(90.5668,-189.921)">
			<title>Dynamic connector.17</title>
			<path d="M0 595.28 L40.35 595.28 L47.39 595.28" class="st10"/>
		</g>
		<g id="shape70-283" transform="translate(538.585,-303.311)">
			<title>Dynamic connector.260</title>
			<desc>NFS Procedure (Call+Reply)</desc>
			<path d="M0 568.44 L0 581.86 L0 588.24 L0 595.28" class="st10"/>
			<rect x="-10.6519" y="573.113" width="88.4018" height="9.59985" class="st7"/>
			<text x="-10.65" y="580.31" class="st8">NFS Procedure (Call+Reply)</text>		</g>
		<g id="shape71-290" transform="translate(701.574,-438.36)">
			<title>Sheet.71</title>
			<desc>::stdout</desc>
			<rect x="0" y="584.043" width="41.3857" height="11.2326" class="st12"/>
			<text x="4.82" y="592.66" class="st2">::stdout</text>		</g>
		<g id="shape72-293" transform="translate(701.574,-462.809)">
			<title>Sheet.72</title>
			<desc>application.log</desc>
			<rect x="0" y="584.043" width="68.0314" height="11.2326" class="st12"/>
			<text x="4.08" y="592.66" class="st2">application.log</text>		</g>
		<g id="shape73-296" transform="translate(701.574,-214.777)">
			<title>Sheet.73</title>
			<desc>::stdout</desc>
			<rect x="0" y="584.043" width="41.3857" height="11.2326" class="st12"/>
			<text x="4.82" y="592.66" class="st2">::stdout</text>		</g>
		<g id="shape74-299" transform="translate(22.6772,-92.4952)">
			<title>Sheet.74</title>
			<path d="M0 537.17 L76.54 538.3 C97.56 540 184.96 539.06 235.7 538.66 C241.39 538.62 246.61 538.58 246.61 595.28 L0 537.17
						 Z" class="st13"/>
			<path d="M0 537.17 L76.54 538.3 C97.56 540 184.96 539.06 235.7 538.66 C241.39 538.62 246.61 538.58 246.61 595.28"
					class="st26"/>
		</g>
		<g id="shape75-302" transform="translate(21.2598,-93.1195)">
			<title>Sheet.75</title>
			<path d="M0 489.97 C165.83 489.97 297.51 490.54 380.25 491.08 C395.11 491.18 408.39 491.27 419.53 484.3 C429.79 476.23
						 430.77 452.47 431.47 415.76 C431.92 392.23 432.26 363.37 441.77 346.48 C458.64 316.52 504.38 324.17 513.99
						 355.05 C516.8 364.08 516.52 375.11 516.26 395.4 C515.93 421.13 515.64 461.76 516.36 499.21 C516.89 526.45
						 517.95 552 523.64 568.03 C533.13 594.74 555.48 594.96 576.84 595.09 C627.23 595.41 672.09 595.22 742.96
						 595.22" class="st27"/>
		</g>
		<g id="shape76-305" transform="translate(22.6772,-77.5079)">
			<title>Sheet.76</title>
			<path d="M0 504.2 L2.83 504.2 C82.39 502.71 183.59 507.39 196.58 500.36 C199.05 499.02 198.33 497.26 201.5 496.08 C212.42
						 492.01 269.52 494.8 339.97 494.12 C371.02 493.81 404.66 492.83 422.01 490.46 C432.11 489.07 436.69 487.21
						 439.04 479.27 C443.9 462.88 439.29 420.6 439.98 391.02 C440.44 371.23 443.27 357.13 447.91 347.19 C460.66
						 319.9 487.05 324.09 497.95 339.22 C500.82 343.21 502.62 347.96 503.54 358.27 C506.95 396.25 498.58 509.66
						 509.55 557.61 C515.89 585.33 528.7 591.17 565.82 593.38 C573.89 593.86 583.11 594.17 593.44 594.4 C633.98
						 595.28 691.65 594.83 742.68 594.83 L0 504.2 Z" class="st13"/>
			<path d="M0 504.2 L2.83 504.2 C82.39 502.71 183.59 507.39 196.58 500.36 C199.05 499.02 198.33 497.26 201.5 496.08 C212.42
						 492.01 269.52 494.8 339.97 494.12 C371.02 493.81 404.66 492.83 422.01 490.46 C432.11 489.07 436.69 487.21
						 439.04 479.27 C443.9 462.88 439.29 420.6 439.98 391.02 C440.44 371.23 443.27 357.13 447.91 347.19 C460.66
						 319.9 487.05 324.09 497.95 339.22 C500.82 343.21 502.62 347.96 503.54 358.27 C506.95 396.25 498.58 509.66
						 509.55 557.61 C515.89 585.33 528.7 591.17 565.82 593.38 C573.89 593.86 583.11 594.17 593.44 594.4 C633.98
						 595.28 691.65 594.83 742.68 594.83" class="st28"/>
		</g>
		<g id="shape77-308" transform="translate(589.61,-220.396)">
			<title>Dynamic connector.285</title>
			<path d="M24.09 595.28 L13.59 595.28 L0 595.28" class="st15"/>
		</g>
		<g id="shape78-313" transform="translate(14.1732,-170.079)">
			<title>Sheet.78</title>
			<desc>Offline Dumping</desc>
			<rect x="0" y="575.276" width="90.8975" height="20" class="st25"/>
			<text x="5.42" y="588.88" class="st17">Offline Dumping</text>		</g>
		<g id="shape79-316" transform="translate(22.6772,-92.1222)">
			<title>Sheet.79</title>
			<path d="M0 507.12 C144.57 510.52 186.41 506.25 199.87 510.7 C212.43 514.86 200.24 526.62 239.68 525.4 C248.84 525.11
						 260.79 524.13 260.79 595.28 L0 507.12 Z" class="st13"/>
			<path d="M0 507.12 C144.57 510.52 186.41 506.25 199.87 510.7 C212.43 514.86 200.24 526.62 239.68 525.4 C248.84 525.11
						 260.79 524.13 260.79 595.28" class="st29"/>
		</g>
		<g id="shape80-319" transform="translate(535.747,-510.489)">
			<title>Sheet.80</title>
			<desc>SIGHUP</desc>
			<rect x="0" y="584.043" width="46.8222" height="11.2326" class="st16"/>
			<text x="4.67" y="593.26" class="st17">SIGHUP</text>		</g>
		<g id="shape81-322" transform="translate(1156.54,86.7404) rotate(90)">
			<title>Sheet.81</title>
			<path d="M0 595.28 L25.57 595.28 L31.61 595.28" class="st18"/>
		</g>
		<g id="shape82-327" transform="translate(586.771,-510.342)">
			<title>Sheet.82</title>
			<desc>SIGTERM</desc>
			<rect x="0" y="584.043" width="53.8582" height="11.2326" class="st16"/>
			<text x="4.63" y="593.26" class="st17">SIGTERM</text>		</g>
		<g id="shape83-330" transform="translate(1036.95,500.628) rotate(134.293)">
			<title>Sheet.83</title>
			<path d="M0 595.28 L40.64 595.28 L46.68 595.28" class="st18"/>
		</g>
		<g id="shape84-335" transform="translate(647.574,-510.236)">
			<title>Sheet.84</title>
			<desc>SIGWINCH</desc>
			<rect x="0" y="584.043" width="60.9448" height="11.2326" class="st16"/>
			<text x="4.76" y="593.26" class="st17">SIGWINCH</text>		</g>
		<g id="shape85-338" transform="translate(967.675,597.783) rotate(149.566)">
			<title>Sheet.85</title>
			<path d="M0 595.28 L59.71 595.28 L65.75 595.28" class="st18"/>
		</g>
		<g id="group86-343" transform="translate(351.495,-191.968)">
			<title>Note</title>
			<desc>Session + timestamp + raw RPC/NFS/CIFS message</desc>
			<g id="group87-344">
				<title>shape126-347</title>
				<desc>Session + timestamp + raw RPC/NFS/CIFS message</desc>
				<g id="shape92-345" transform="translate(1.59872E-013,-27.7128)">
					<title>Sheet.92</title>
					<path d="M0 595.28 L85.04 595.28 L85.04 561.26 L76.54 552.76 L0 552.76 L0 595.28 Z" class="st30"/>
				</g>
				<g id="shape93-347" transform="translate(42.5199,-1.97279)">
					<title>Sheet.93</title>
					<path d="M0 569.54 L0 595.28 L0 569.54 Z" class="st13"/>
					<path d="M0 569.54 L0 595.28" class="st31"/>
				</g>
				<g id="shape94-350" transform="translate(1.59872E-013,-27.7128)">
					<title>Sheet.94</title>
					<path d="M0 595.28 L85.04 595.28 L85.04 561.26 L76.54 552.76 L0 552.76 L0 595.28 Z" class="st32"/>
				</g>
				<g id="shape87-352">
					<text x="6.18" y="539.1" class="st8">Session + timestamp +<tspan x="12.91" dy="1.2em" class="st3">raw RPC</tspan>/NFS/CIFS <tspan
								x="28.42" dy="1.2em" class="st3">message</tspan></text>				</g>
			</g>
			<g id="shape95-356" transform="translate(75.6853,-60.8784)">
				<title>Sheet.95</title>
				<path d="M0.85 594.43 L9.35 594.43 L9.35 595.28 L9.35 594.43 L0.85 585.92 L0 585.92 L0.85 585.92 L0.85 594.43 Z"
						class="st33"/>
			</g>
		</g>
		<g id="group96-358" transform="translate(589.604,-263.39)">
			<title>Note.133</title>
			<desc>Pass NFS operations to each Analyzer</desc>
			<g id="group97-359">
				<title>shape133-370</title>
				<desc>Pass NFS operations to each Analyzer</desc>
				<g id="shape102-360" transform="translate(111.97,-24.3228)">
					<title>Sheet.102</title>
					<path d="M0 595.28 L102.05 595.28 L102.05 574.02 L93.54 565.51 L0 565.51 L0 595.28 Z" class="st30"/>
				</g>
				<g id="shape103-362" transform="translate(-4.8761E-013,-1.97279)">
					<title>Sheet.103</title>
					<path d="M111.97 572.93 L0 595.28 L111.97 572.93 Z" class="st13"/>
					<path d="M111.97 572.93 L0 595.28" class="st31"/>
				</g>
				<g id="shape104-365" transform="translate(111.97,-24.3228)">
					<title>Sheet.104</title>
					<path d="M0 595.28 L102.05 595.28 L102.05 574.02 L93.54 565.51 L0 565.51 L0 595.28 Z" class="st32"/>
				</g>
				<g id="shape97-367">
					<text x="115.97" y="554.07" class="st8">Pass NFS operations to each <tspan x="115.97" dy="1em" class="st3">Analyzer</tspan></text>				</g>
			</g>
			<g id="shape105-370" transform="translate(204.663,-44.7325)">
				<title>Sheet.105</title>
				<path d="M0.85 594.43 L9.35 594.43 L9.35 595.28 L9.35 594.43 L0.85 585.92 L0 585.92 L0.85 585.92 L0.85 594.43 Z"
						class="st33"/>
			</g>
		</g>
		<g id="shape112-372" transform="translate(312.823,-554.219)">
			<title>Sheet.112</title>
			<path d="M0 595.28 L85.04 595.28 L85.04 574.02 L76.54 565.51 L0 565.51 L0 595.28 Z" class="st30"/>
		</g>
		<g id="shape113-374" transform="translate(397.862,-521.471)">
			<title>Sheet.113</title>
			<path d="M0 582.56 L40.73 595.28 L0 582.56 Z" class="st13"/>
			<path d="M0 582.56 L40.73 595.28" class="st31"/>
		</g>
		<g id="shape107-377" transform="translate(317.136,-522.142)">
			<title>shape145-393</title>
			<desc>Exit via (Ctrl-C)</desc>
			<text x="4.28" y="574.86" class="st2">Exit via (Ctrl-C)</text>		</g>
		<g id="group116-379" transform="translate(669.664,-226.215)">
			<title>Note.163</title>
			<desc>Builtin Analyzer for trace-out NFSv3/NFSv4/NFSv41/CIFSv2 Proc...</desc>
			<g id="group117-380">
				<title>shape163-414</title>
				<desc>Builtin Analyzer for trace-out NFSv3/NFSv4/NFSv41/CIFSv2 Proc...</desc>
				<g id="shape122-381" transform="translate(31.91,-11.1828)">
					<title>Sheet.122</title>
					<path d="M0 595.28 L102.05 595.28 L102.05 565.51 L93.54 557.01 L0 557.01 L0 595.28 Z" class="st30"/>
				</g>
				<g id="shape123-383" transform="translate(-4.19664E-014,-1.97279)">
					<title>Sheet.123</title>
					<path d="M31.91 586.07 L0 595.28 L31.91 586.07 Z" class="st13"/>
					<path d="M31.91 586.07 L0 595.28" class="st31"/>
				</g>
				<g id="shape124-386" transform="translate(31.91,-11.1828)">
					<title>Sheet.124</title>
					<path d="M0 595.28 L102.05 595.28 L102.05 565.51 L93.54 557.01 L0 557.01 L0 595.28 Z" class="st32"/>
				</g>
				<g id="shape117-388">
					<text x="35.91" y="557.75" class="st8">Builtin Analyzer for trace-<tspan x="35.91" dy="1.2em" class="st3">out NFSv</tspan>3/NFSv4/NFSv41/<tspan
								x="35.91" dy="1.2em" class="st3">CIFSv</tspan>2 Procedures to stdout</text>				</g>
			</g>
			<g id="shape125-392" transform="translate(124.603,-40.0965)">
				<title>Sheet.125</title>
				<path d="M0.85 594.43 L9.35 594.43 L9.35 595.28 L9.35 594.43 L0.85 585.92 L0 585.92 L0.85 585.92 L0.85 594.43 Z"
						class="st33"/>
			</g>
		</g>
		<g id="group126-394" transform="translate(667.554,-336.054)">
			<title>Note.170</title>
			<desc>Storage for RPC calls related to a session</desc>
			<g id="group127-395">
				<title>shape170-437</title>
				<desc>Storage for RPC calls related to a session</desc>
				<g id="shape132-396" transform="translate(34.02,-1.97279)">
					<title>Sheet.132</title>
					<path d="M0 595.28 L102.05 595.28 L102.05 578.27 L93.54 569.76 L0 569.76 L0 595.28 Z" class="st30"/>
				</g>
				<g id="shape133-398" transform="translate(3.89688E-013,-14.2128)">
					<title>Sheet.133</title>
					<path d="M34.02 595.07 L0 595.28 L34.02 595.07 Z" class="st13"/>
					<path d="M34.02 595.07 L0 595.28" class="st31"/>
				</g>
				<g id="shape134-401" transform="translate(34.02,-1.97279)">
					<title>Sheet.134</title>
					<path d="M0 595.28 L102.05 595.28 L102.05 578.27 L93.54 569.76 L0 569.76 L0 595.28 Z" class="st32"/>
				</g>
				<g id="shape127-403">
					<text x="38.02" y="578.54" class="st8">Storage for RPC calls related <tspan x="38.02" dy="1em" class="st3">to a session</tspan></text>				</g>
			</g>
			<g id="shape135-406" transform="translate(126.713,-18.1307)">
				<title>Sheet.135</title>
				<path d="M0.85 594.43 L9.35 594.43 L9.35 595.28 L9.35 594.43 L0.85 585.92 L0 585.92 L0.85 585.92 L0.85 594.43 Z"
						class="st33"/>
			</g>
		</g>
		<g id="group136-408" transform="translate(347.531,-59.3936)">
			<title>Note.177</title>
			<desc>Analysis module API</desc>
			<g id="group137-409">
				<title>shape177-458</title>
				<desc>Analysis module API</desc>
				<g id="shape142-410" transform="translate(4.55636E-013,-1.97279)">
					<title>Sheet.142</title>
					<path d="M0 595.28 L66.33 595.28 L66.33 569.76 L57.82 561.26 L0 561.26 L0 595.28 Z" class="st30"/>
				</g>
				<g id="shape143-412" transform="translate(66.3299,-18.1417)">
					<title>Sheet.143</title>
					<path d="M0 595.28 L28.06 595.28" class="st31"/>
				</g>
				<g id="shape144-415" transform="translate(4.55636E-013,-1.97279)">
					<title>Sheet.144</title>
					<path d="M0 595.28 L66.33 595.28 L66.33 569.76 L57.82 561.26 L0 561.26 L0 595.28 Z" class="st32"/>
				</g>
				<g id="shape137-417">
					<text x="6.74" y="573.89" class="st8">Analysis module <tspan x="27.77" dy="1.2em" class="st3">API</tspan></text>				</g>
			</g>
			<g id="shape145-420" transform="translate(56.9729,-26.6346)">
				<title>Sheet.145</title>
				<path d="M0.85 594.43 L9.35 594.43 L9.35 595.28 L9.35 594.43 L0.85 585.92 L0 585.92 L0.85 585.92 L0.85 594.43 Z"
						class="st33"/>
			</g>
		</g>
		<g id="group146-422" transform="translate(673.224,-471.397)">
			<title>Note.181</title>
			<desc>Global logger for traces</desc>
			<g id="group147-423">
				<title>shape181-479</title>
				<desc>Global logger for traces</desc>
				<g id="shape152-424" transform="translate(28.35,-13.3228)">
					<title>Sheet.152</title>
					<path d="M0 595.28 L102.05 595.28 L102.05 581.1 L93.54 572.6 L0 572.6 L0 595.28 Z" class="st30"/>
				</g>
				<g id="shape153-426" transform="translate(7.19425E-014,-1.97279)">
					<title>Sheet.153</title>
					<path d="M28.35 583.93 L0 595.28 L28.35 583.93 Z" class="st13"/>
					<path d="M28.35 583.93 L0 595.28" class="st31"/>
				</g>
				<g id="shape154-429" transform="translate(28.35,-13.3228)">
					<title>Sheet.154</title>
					<path d="M0 595.28 L102.05 595.28 L102.05 581.1 L93.54 572.6 L0 572.6 L0 595.28 Z" class="st32"/>
				</g>
				<g id="shape147-431">
					<text x="32.35" y="572.61" class="st8">Global logger for traces</text>				</g>
			</g>
			<g id="shape155-433" transform="translate(121.043,-26.646)">
				<title>Sheet.155</title>
				<path d="M0.85 594.43 L9.35 594.43 L9.35 595.28 L9.35 594.43 L0.85 585.92 L0 585.92 L0.85 585.92 L0.85 594.43 Z"
						class="st33"/>
			</g>
		</g>
		<g id="group156-435" transform="translate(135.874,-480.726)">
			<title>Note.196</title>
			<desc>Wrapper over CLI with validation</desc>
			<g id="group157-436">
				<title>shape196-498</title>
				<desc>Wrapper over CLI with validation</desc>
				<g id="shape162-437" transform="translate(-2.23821E-013,-25.9628)">
					<title>Sheet.162</title>
					<path d="M0 595.28 L90.9 595.28 L90.9 574.02 L82.39 565.51 L0 565.51 L0 595.28 Z" class="st30"/>
				</g>
				<g id="shape163-439" transform="translate(90.8999,-1.97279)">
					<title>Sheet.163</title>
					<path d="M0 571.29 L15.4 595.28 L0 571.29 Z" class="st13"/>
					<path d="M0 571.29 L15.4 595.28" class="st31"/>
				</g>
				<g id="shape164-442" transform="translate(-2.23821E-013,-25.9628)">
					<title>Sheet.164</title>
					<path d="M0 595.28 L90.9 595.28 L90.9 574.02 L82.39 565.51 L0 565.51 L0 595.28 Z" class="st32"/>
				</g>
				<g id="shape157-444">
					<text x="9.96" y="551.93" class="st2">Wrapper over CLI <tspan x="15.24" dy="1em" class="st3">with validation</tspan></text>				</g>
			</g>
			<g id="shape165-447" transform="translate(81.5436,-46.3725)">
				<title>Sheet.165</title>
				<path d="M0.85 594.43 L9.35 594.43 L9.35 595.28 L9.35 594.43 L0.85 585.92 L0 585.92 L0.85 585.92 L0.85 594.43 Z"
						class="st33"/>
			</g>
		</g>
		<g id="group166-449" transform="translate(407.479,-519.498)">
			<title>Note.212</title>
			<desc>Compression Process complete</desc>
			<g id="group167-450">
				<title>shape212-519</title>
				<desc>Compression Process complete</desc>
				<g id="shape172-451" transform="translate(3.83693E-013,-14.6928)">
					<title>Sheet.172</title>
					<path d="M0 595.28 L85.04 595.28 L85.04 578.27 L76.54 569.76 L0 569.76 L0 595.28 Z" class="st30"/>
				</g>
				<g id="shape173-453" transform="translate(85.0399,-1.97279)">
					<title>Sheet.173</title>
					<path d="M0 582.56 L1.03 595.28 L0 582.56 Z" class="st13"/>
					<path d="M0 582.56 L1.03 595.28" class="st34"/>
				</g>
				<g id="shape174-456" transform="translate(3.83693E-013,-14.6928)">
					<title>Sheet.174</title>
					<path d="M0 595.28 L85.04 595.28 L85.04 578.27 L76.54 569.76 L0 569.76 L0 595.28 Z" class="st35"/>
				</g>
				<g id="shape167-458">
					<text x="8.05" y="565.82" class="st8">Compression Process <tspan x="27.18" dy="1em" class="st3">complete</tspan></text>				</g>
			</g>
			<g id="shape175-461" transform="translate(75.6853,-30.8506)">
				<title>Sheet.175</title>
				<path d="M0.85 594.43 L9.35 594.43 L9.35 595.28 L9.35 594.43 L0.85 585.92 L0 585.92 L0.85 585.92 L0.85 594.43 Z"
						class="st36"/>
			</g>
		</g>
		<g id="group176-463" transform="translate(673.224,-396.999)">
			<title>Note.234</title>
			<desc>User messages regarding to verbose level</desc>
			<g id="group177-464">
				<title>shape234-540</title>
				<desc>User messages regarding to verbose level</desc>
				<g id="shape182-465" transform="translate(28.35,-1.97279)">
					<title>Sheet.182</title>
					<path d="M0 595.28 L102.05 595.28 L102.05 578.27 L93.54 569.76 L0 569.76 L0 595.28 Z" class="st30"/>
				</g>
				<g id="shape183-467" transform="translate(7.19425E-014,-27.4928)">
					<title>Sheet.183</title>
					<path d="M28.35 595.28 L0 581.57 L28.35 595.28 Z" class="st13"/>
					<path d="M28.35 595.28 L0 581.57" class="st31"/>
				</g>
				<g id="shape184-470" transform="translate(28.35,-1.97279)">
					<title>Sheet.184</title>
					<path d="M0 595.28 L102.05 595.28 L102.05 578.27 L93.54 569.76 L0 569.76 L0 595.28 Z" class="st32"/>
				</g>
				<g id="shape177-472">
					<text x="32.35" y="578.54" class="st8">User messages regarding to <tspan x="32.35" dy="1em" class="st3">verbose level</tspan></text>				</g>
			</g>
			<g id="shape185-475" transform="translate(121.043,-18.1307)">
				<title>Sheet.185</title>
				<path d="M0.85 594.43 L9.35 594.43 L9.35 595.28 L9.35 594.43 L0.85 585.92 L0 585.92 L0.85 585.92 L0.85 594.43 Z"
						class="st33"/>
			</g>
		</g>
		<g id="group186-477" transform="translate(503.149,-519.748)">
			<title>Note.305</title>
			<desc>Terminal is closed</desc>
			<g id="group187-478">
				<title>shape305-561</title>
				<desc>Terminal is closed</desc>
				<g id="shape192-479" transform="translate(1.43885E-013,-14.4428)">
					<title>Sheet.192</title>
					<path d="M0 595.28 L75.12 595.28 L75.12 581.1 L66.61 572.6 L0 572.6 L0 595.28 Z" class="st30"/>
				</g>
				<g id="shape193-481" transform="translate(44.6699,-1.97279)">
					<title>Sheet.193</title>
					<path d="M0 582.81 L7.82 595.28 L0 582.81 Z" class="st13"/>
					<path d="M0 582.81 L7.82 595.28" class="st31"/>
				</g>
				<g id="shape194-484" transform="translate(1.43885E-013,-14.4428)">
					<title>Sheet.194</title>
					<path d="M0 595.28 L75.12 595.28 L75.12 581.1 L66.61 572.6 L0 572.6 L0 595.28 Z" class="st32"/>
				</g>
				<g id="shape187-486">
					<text x="8.51" y="571.49" class="st8">Terminal is closed</text>				</g>
			</g>
			<g id="shape195-488" transform="translate(65.7641,-27.766)">
				<title>Sheet.195</title>
				<path d="M0.85 594.43 L9.35 594.43 L9.35 595.28 L9.35 594.43 L0.85 585.92 L0 585.92 L0.85 585.92 L0.85 594.43 Z"
						class="st33"/>
			</g>
		</g>
		<g id="group196-490" transform="translate(590.426,-521.588)">
			<title>Note.308</title>
			<desc>Termination request</desc>
			<g id="group197-491">
				<title>shape308-580</title>
				<desc>Termination request</desc>
				<g id="shape202-492" transform="translate(1.59872E-013,-12.6028)">
					<title>Sheet.202</title>
					<path d="M0 595.28 L85.04 595.28 L85.04 581.1 L76.54 572.6 L0 572.6 L0 595.28 Z" class="st30"/>
				</g>
				<g id="shape203-494" transform="translate(30.36,-1.97279)">
					<title>Sheet.203</title>
					<path d="M5.89 584.65 L0 595.28 L5.89 584.65 Z" class="st13"/>
					<path d="M5.89 584.65 L0 595.28" class="st31"/>
				</g>
				<g id="shape204-497" transform="translate(1.59872E-013,-12.6028)">
					<title>Sheet.204</title>
					<path d="M0 595.28 L85.04 595.28 L85.04 581.1 L76.54 572.6 L0 572.6 L0 595.28 Z" class="st32"/>
				</g>
				<g id="shape197-499">
					<text x="9.2" y="573.33" class="st8">Termination request</text>				</g>
			</g>
			<g id="shape205-501" transform="translate(75.6853,-25.926)">
				<title>Sheet.205</title>
				<path d="M0.85 594.43 L9.35 594.43 L9.35 595.28 L9.35 594.43 L0.85 585.92 L0 585.92 L0.85 585.92 L0.85 594.43 Z"
						class="st33"/>
			</g>
		</g>
		<g id="group206-503" transform="translate(688.629,-519.498)">
			<title>Note.312</title>
			<desc>Terminal changes size</desc>
			<g id="group207-504">
				<title>shape312-599</title>
				<desc>Terminal changes size</desc>
				<g id="shape212-505" transform="translate(-1.19904E-013,-14.6928)">
					<title>Sheet.212</title>
					<path d="M0 595.28 L90.9 595.28 L90.9 581.1 L82.39 572.6 L0 572.6 L0 595.28 Z" class="st30"/>
				</g>
				<g id="shape213-507" transform="translate(1.15142E-016,-1.97279)">
					<title>Sheet.213</title>
					<path d="M0 582.56 L0.02 595.28 L0 582.56 Z" class="st13"/>
					<path d="M0 582.56 L0.02 595.28" class="st31"/>
				</g>
				<g id="shape214-510" transform="translate(-1.19904E-013,-14.6928)">
					<title>Sheet.214</title>
					<path d="M0 595.28 L90.9 595.28 L90.9 581.1 L82.39 572.6 L0 572.6 L0 595.28 Z" class="st32"/>
				</g>
				<g id="shape207-512">
					<text x="9.96" y="571.24" class="st8">Terminal changes size</text>				</g>
			</g>
			<g id="shape215-514" transform="translate(81.5436,-28.016)">
				<title>Sheet.215</title>
				<path d="M0.85 594.43 L9.35 594.43 L9.35 595.28 L9.35 594.43 L0.85 585.92 L0 585.92 L0.85 585.92 L0.85 594.43 Z"
						class="st33"/>
			</g>
		</g>
		<g id="shape220-516" transform="translate(313.228,-551.336)">
			<title>Sheet.220</title>
			<path d="M0 595.28 L85.04 595.28 L85.04 581.1 L76.54 572.6 L0 572.6 L0 595.28 Z" class="st30"/>
		</g>
		<g id="shape222-518" transform="translate(312.661,-534.195)">
			<title>Sheet.222</title>
			<path d="M0 595.28 L85.04 595.28 L85.04 581.1 L76.54 572.6 L0 572.6 L0 595.28 Z" class="st32"/>
		</g>
		<g id="shape223-520" transform="translate(388.346,-547.648)">
			<title>Sheet.223</title>
			<path d="M0.85 594.43 L9.35 594.43 L9.35 595.28 L9.35 594.43 L0.85 585.92 L0 585.92 L0.85 585.92 L0.85 594.43 Z"
					class="st33"/>
		</g>
	</g>
</svg>
